<svg width="500" height="500" viewBox="0 0 500 500" fill="none" xmlns="http://www.w3.org/2000/svg">
<g clip-path="url(#clip0_12_33)">
<path d="M250 45.0195C316.797 45.0195 324.707 45.3125 350.977 46.4844C375.391 47.5586 388.574 51.6602 397.363 55.0781C408.984 59.5703 417.383 65.0391 426.074 73.7305C434.863 82.5195 440.234 90.8203 444.727 102.441C448.145 111.23 452.246 124.512 453.32 148.828C454.492 175.195 454.785 183.105 454.785 249.805C454.785 316.602 454.492 324.512 453.32 350.781C452.246 375.195 448.145 388.379 444.727 397.168C440.234 408.789 434.766 417.187 426.074 425.879C417.285 434.668 408.984 440.039 397.363 444.531C388.574 447.949 375.293 452.051 350.977 453.125C324.609 454.297 316.699 454.59 250 454.59C183.203 454.59 175.293 454.297 149.023 453.125C124.609 452.051 111.426 447.949 102.637 444.531C91.0156 440.039 82.6172 434.57 73.9258 425.879C65.1367 417.09 59.7656 408.789 55.2734 397.168C51.8555 388.379 47.7539 375.098 46.6797 350.781C45.5078 324.414 45.2148 316.504 45.2148 249.805C45.2148 183.008 45.5078 175.098 46.6797 148.828C47.7539 124.414 51.8555 111.23 55.2734 102.441C59.7656 90.8203 65.2344 82.4219 73.9258 73.7305C82.7148 64.9414 91.0156 59.5703 102.637 55.0781C111.426 51.6602 124.707 47.5586 149.023 46.4844C175.293 45.3125 183.203 45.0195 250 45.0195ZM250 0C182.129 0 173.633 0.292969 146.973 1.46484C120.41 2.63672 102.148 6.93359 86.3281 13.0859C69.8242 19.5312 55.8594 28.0273 41.9922 41.9922C28.0273 55.8594 19.5313 69.8242 13.0859 86.2305C6.93359 102.148 2.63672 120.312 1.46484 146.875C0.292969 173.633 0 182.129 0 250C0 317.871 0.292969 326.367 1.46484 353.027C2.63672 379.59 6.93359 397.852 13.0859 413.672C19.5313 430.176 28.0273 444.141 41.9922 458.008C55.8594 471.875 69.8242 480.469 86.2305 486.816C102.148 492.969 120.313 497.266 146.875 498.437C173.535 499.609 182.031 499.902 249.902 499.902C317.773 499.902 326.27 499.609 352.93 498.437C379.492 497.266 397.754 492.969 413.574 486.816C429.981 480.469 443.945 471.875 457.813 458.008C471.68 444.141 480.273 430.176 486.621 413.77C492.773 397.852 497.07 379.687 498.242 353.125C499.414 326.465 499.707 317.969 499.707 250.098C499.707 182.227 499.414 173.73 498.242 147.07C497.07 120.508 492.773 102.246 486.621 86.4258C480.469 69.8242 471.973 55.8594 458.008 41.9922C444.141 28.125 430.176 19.5312 413.77 13.1836C397.852 7.03125 379.688 2.73437 353.125 1.5625C326.367 0.292969 317.871 0 250 0Z" fill="white"/>
<path d="M250 121.582C179.102 121.582 121.582 179.102 121.582 250C121.582 320.898 179.102 378.418 250 378.418C320.898 378.418 378.418 320.898 378.418 250C378.418 179.102 320.898 121.582 250 121.582ZM250 333.301C204.004 333.301 166.699 295.996 166.699 250C166.699 204.004 204.004 166.699 250 166.699C295.996 166.699 333.301 204.004 333.301 250C333.301 295.996 295.996 333.301 250 333.301Z" fill="white"/>
<path d="M413.477 116.503C413.477 133.105 400 146.484 383.496 146.484C366.895 146.484 353.516 133.007 353.516 116.503C353.516 99.9014 366.992 86.5225 383.496 86.5225C400 86.5225 413.477 99.9991 413.477 116.503Z" fill="white"/>
</g>
<defs>
<clipPath id="clip0_12_33">
<rect width="500" height="500" fill="white"/>
</clipPath>
</defs>
</svg>
