<svg width="500" height="503" viewBox="0 0 500 503" fill="none" xmlns="http://www.w3.org/2000/svg">
<path d="M0 502.387L35.3136 373.379C13.5226 335.616 2.07234 292.808 2.09328 248.912C2.15607 111.677 113.832 0 251.047 0C317.634 0.0209328 380.139 25.9567 427.154 73.0136C474.148 120.071 500.021 182.618 500 249.142C499.937 386.399 388.261 498.075 251.047 498.075C209.39 498.054 168.341 487.609 131.981 467.765L0 502.387ZM138.093 422.696C173.177 443.524 206.669 456 250.963 456.021C365.005 456.021 457.904 363.205 457.967 249.1C458.009 134.765 365.549 42.0749 251.13 42.0331C137.005 42.0331 44.1681 134.849 44.1263 248.933C44.1053 295.508 57.7535 330.383 80.6749 366.868L59.763 443.231L138.093 422.696ZM376.455 308.319C374.906 305.724 370.761 304.175 364.523 301.056C358.306 297.937 327.723 282.886 322.009 280.814C316.315 278.741 312.17 277.695 308.005 283.933C303.86 290.15 291.928 304.175 288.307 308.319C284.686 312.464 281.043 312.987 274.826 309.868C268.609 306.749 248.556 300.197 224.797 278.992C206.313 262.497 193.816 242.13 190.195 235.892C186.574 229.675 189.818 226.305 192.916 223.207C195.721 220.422 199.133 215.943 202.252 212.301C205.413 208.7 206.439 206.104 208.532 201.939C210.605 197.794 209.579 194.152 208.009 191.033C206.439 187.935 194.005 157.31 188.834 144.855C183.769 132.735 178.64 134.368 174.83 134.179L162.899 133.97C158.754 133.97 152.014 135.519 146.32 141.757C140.626 147.995 124.55 163.025 124.55 193.649C124.55 224.274 146.843 253.852 149.941 257.997C153.06 262.142 193.796 324.982 256.196 351.922C271.037 358.328 282.634 362.159 291.656 365.026C306.56 369.757 320.125 369.087 330.842 367.496C342.795 365.717 367.642 352.446 372.833 337.918C378.025 323.37 378.025 310.915 376.455 308.319Z" fill="white"/>
</svg>
